<svg viewBox="0 0 32 32" xmlns="http://www.w3.org/2000/svg"><g fill="#101820"><path d="m30 15a1 1 0 0 1 -.58-.19l-13.42-9.58-13.42 9.58a1 1 0 0 1 -1.16-1.62l14-10a1 1 0 0 1 1.16 0l14 10a1 1 0 0 1 -.58 1.81z"/><path d="m5 9a1 1 0 0 1 -1-1v-4a1 1 0 0 1 1-1h4a1 1 0 0 1 0 2h-3v3a1 1 0 0 1 -1 1z"/><path d="m25 29h-5a1 1 0 0 1 -1-1v-7h-6v7a1 1 0 0 1 -1 1h-5a3 3 0 0 1 -3-3v-10a1 1 0 0 1 2 0v10a1 1 0 0 0 1 1h4v-7a1 1 0 0 1 1-1h8a1 1 0 0 1 1 1v7h4a1 1 0 0 0 1-1v-10a1 1 0 0 1 2 0v10a3 3 0 0 1 -3 3z"/></g></svg>