<svg viewBox="0 0 255.57568 132.73476" xmlns="http://www.w3.org/2000/svg"><g transform="translate(-372.21216 -254.74473)"><path d="m567.31985 289.55809c-8.20592-9.996-32.36326-35.21066-66.98084-34.80861-36.67613.426-61.611 28.15791-68.27425 36.4794a3.73663 3.73663 0 0 0 0 4.67122c4.76681 5.9528 19.20526 21.53253 40.28 30.24987-8.633-9.22273-8.20764-17.00924-8.20764-17.00924v-.00035a144.11531 144.11531 0 0 1 -17.026-12.75042 3.74279 3.74279 0 0 1 -.0013-5.64977c6.22744-5.4181 20.82863-17.12971 35.35582-21.58785l.19334-.06553a56.16741 56.16741 0 0 1 35.17158.03169c14.47182 4.782 29.13317 16.22812 35.489 21.58711a3.73976 3.73976 0 0 1 -.002 5.71926 144.20841 144.20841 0 0 1 -24.67434 16.91881 31.05773 31.05773 0 1 0 -28.64313 19.04032c.12525 0 .2497-.00326.37459-.00475 34.60056.38427 58.74506-24.81915 66.94668-34.81046a6.30893 6.30893 0 0 0 -.00151-8.0107zm-67.31976 23.97373a19.96745 19.96745 0 1 1 19.96745-19.96744 19.96743 19.96743 0 0 1 -19.96745 19.96744z" fill="#b02f2f"/><path d="m372.21216 342.50049a1.12908 1.12908 0 0 1 .28174-.75049.96109.96109 0 0 1 .77295-.332h4.9038a1.18053 1.18053 0 0 1 .78467.31982.9793.9793 0 0 1 .36768.7627v12.7456h16.51025v-12.7456a1.08753 1.08753 0 0 1 .29444-.7627 1.01513 1.01513 0 0 1 .78466-.31982h4.83057a1.31822 1.31822 0 0 1 .8457.28271.93868.93868 0 0 1 .356.77539v34.39844q0 1.08252-1.15283 1.08252h-4.8794a.95519.95519 0 0 1 -1.0791-1.08252v-14.88626h-16.51029v14.88623q0 1.08252-1.20117 1.08252h-4.855q-1.05469 0-1.05469-1.00879z"/><path d="m435.91528 374.51221a17.56921 17.56921 0 0 1 -4.73681 2.90332 14.707 14.707 0 0 1 -5.647 1.0581 16.04428 16.04428 0 0 1 -6.29882-1.25488 16.49221 16.49221 0 0 1 -8.772-8.57471 15.32823 15.32823 0 0 1 -1.3164-6.33593 16.50548 16.50548 0 0 1 2.0791-8.0586 15.97105 15.97105 0 0 1 2.42383-3.27246 15.35186 15.35186 0 0 1 7.00049-4.1831 15.96306 15.96306 0 0 1 4.34277-.57813 15.18061 15.18061 0 0 1 3.69092.45508 16.2599 16.2599 0 0 1 3.457 1.292 16.43673 16.43673 0 0 1 3.063 2.02979 14.77668 14.77668 0 0 1 2.50976 2.69433 14.56994 14.56994 0 0 1 2.16553 4.45362 19.05584 19.05584 0 0 1 .689 5.29052 9.73273 9.73273 0 0 1 -.06152 1.19336 1.47478 1.47478 0 0 1 -.30762.7749 1.41616 1.41616 0 0 1 -.73828.43067 5.4485 5.4485 0 0 1 -1.37793.13525h-21.8247a8.32428 8.32428 0 0 0 1.21777 3.13721 9.42255 9.42255 0 0 0 2.12842 2.313 9.00073 9.00073 0 0 0 2.68213 1.42724 9.2 9.2 0 0 0 2.90332.4795 10.02976 10.02976 0 0 0 2.12841-.2212 11.05356 11.05356 0 0 0 1.90674-.59082 10.59544 10.59544 0 0 0 1.63623-.84863 9.69743 9.69743 0 0 0 1.31641-.99658.02221.02221 0 0 1 .0249-.0249 3.46527 3.46527 0 0 1 .56592-.43018 1.098 1.098 0 0 1 .56592-.16016 1.12043 1.12043 0 0 1 .50439.14747 1.78916 1.78916 0 0 1 .55371.49218q.66431.81226 1.13184 1.35352.46655.54126.76269.91016a3.7937 3.7937 0 0 1 .43067.64013 1.2063 1.2063 0 0 1 .13525.541 1.849 1.849 0 0 1 -.93504 1.37793zm-10.9248-22.19434a7.83253 7.83253 0 0 0 -2.82959.5293 9.489 9.489 0 0 0 -2.522 1.43945 9.89453 9.89453 0 0 0 -1.99317 2.14063 8.73925 8.73925 0 0 0 -1.24267 2.65722h17.42095a9.49262 9.49262 0 0 0 -1.19335-2.74316 8.7958 8.7958 0 0 0 -1.93165-2.14111 8.54944 8.54944 0 0 0 -2.58349-1.39014 9.68737 9.68737 0 0 0 -3.12503-.49219z"/><path d="m446.42163 338.9082a1.61128 1.61128 0 0 1 .34424-1.0581 1.29108 1.29108 0 0 1 1.0581-.41846h4.30616a1.31222 1.31222 0 0 1 .92285.41846 1.415 1.415 0 0 1 .43017 1.0581v37.57227a1.423 1.423 0 0 1 -.40576 1.10742 1.56581 1.56581 0 0 1 -1.09521.36914h-4.10889a1.44729 1.44729 0 0 1 -1.11963-.36914 1.61145 1.61145 0 0 1 -.332-1.10742z"/><path d="m461.30737 346.85547a2.11945 2.11945 0 0 1 .65235-.18457 5.93794 5.93794 0 0 1 .65185-.03662h2.48535a1.21275 1.21275 0 0 1 1.04541.41845 2.58635 2.58635 0 0 1 .43067 1.05762l.51709 3.002a23.1508 23.1508 0 0 1 1.833-1.87011 12.62435 12.62435 0 0 1 2.15283-1.57471 11.28147 11.28147 0 0 1 2.6084-1.09473 11.68843 11.68843 0 0 1 3.19873-.40625 15.52275 15.52275 0 0 1 4.269.57862 15.90022 15.90022 0 0 1 3.78906 1.624 15.48961 15.48961 0 0 1 3.18653 2.50977 15.964 15.964 0 0 1 2.44824 3.25976 16.36062 16.36062 0 0 1 1.5747 3.86328 17.019 17.019 0 0 1 0 8.61182 16.2213 16.2213 0 0 1 -4.02294 7.13574 15.25371 15.25371 0 0 1 -3.18653 2.522 15.84035 15.84035 0 0 1 -3.80176 1.624 15.557 15.557 0 0 1 -4.25634.57812 11.80632 11.80632 0 0 1 -2.94043-.34424 11.37185 11.37185 0 0 1 -2.48535-.94726 12.46158 12.46158 0 0 1 -2.11622-1.40283 20.05393 20.05393 0 0 1 -1.833-1.71v11.98291a1.473 1.473 0 0 1 -.36914 1.00879 1.39889 1.39889 0 0 1 -1.10694.41845h-4.08447a1.68506 1.68506 0 0 1 -1.02148-.38135 1.2402 1.2402 0 0 1 -.5044-1.04589v-37.9663a1.27325 1.27325 0 0 1 .23389-.812 1.25842 1.25842 0 0 1 .6519-.41847zm24.38428 15.45264a10.02828 10.02828 0 0 0 -2.62061-6.77881 9.12475 9.12475 0 0 0 -2.89111-2.0918 8.50263 8.50263 0 0 0 -3.61719-.7749 8.87057 8.87057 0 0 0 -3.6538.76269 9.9213 9.9213 0 0 0 -3.002 2.05469 10.0749 10.0749 0 0 0 -2.06689 3.01416 9.06047 9.06047 0 0 0 -.79932 3.6416v.17237a9.485 9.485 0 0 0 .75049 3.73974 9.99137 9.99137 0 0 0 2.042 3.10059 9.85859 9.85859 0 0 0 3.02637 2.11572 8.84758 8.84758 0 0 0 3.70312.7876 8.38223 8.38223 0 0 0 3.61719-.7876 9.17766 9.17766 0 0 0 2.89111-2.11572 10.15523 10.15523 0 0 0 2.62061-6.84033z"/><path d="m509.58374 377.957a12.03073 12.03073 0 0 1 -3.6543-.59082 8.87038 8.87038 0 0 1 -2.97754-1.63769 7.717 7.717 0 0 1 -2.00488-2.63575 8.24056 8.24056 0 0 1 -.73828-3.55908v-16.625h-2.82959a1.56352 1.56352 0 0 1 -1.07031-.31836 1.35279 1.35279 0 0 1 -.35694-1.0542v-3.52881a1.239 1.239 0 0 1 .35694-1.00537 1.65517 1.65517 0 0 1 1.07031-.29394h2.82959q0-1.30371.01172-2.59571.01318-1.292.01269-2.59619a1.00168 1.00168 0 0 1 .30762-.7749 2.72007 2.72007 0 0 1 .94727-.50439q.41893-.148 1.00879-.35694.59033-.20874 1.21777-.40576c.41894-.13135.82422-.2417 1.21875-.332a4.54959 4.54959 0 0 1 .9834-.13574 1.04494 1.04494 0 0 1 .99707.41845 2.27473 2.27473 0 0 1 .2334 1.10743q0 1.5498-.01172 3.08789-.01318 1.53809-.0127 3.08789h3.543a1.36383 1.36383 0 0 1 .98438.33105 1.38864 1.38864 0 0 1 .34472 1.04151v3.35743a1.5496 1.5496 0 0 1 -.34472 1.12793 1.33539 1.33539 0 0 1 -.98438.34277h-3.543v4.66895q0 .8496.0127 1.58935.01171.739.01172 1.60108v4.68115a.42859.42859 0 0 1 -.01172.09863.38147.38147 0 0 0 -.0127.09815v3.22754a3.4703 3.4703 0 0 0 .63965 2.34082 2.64859 2.64859 0 0 0 2.06738.71435.98356.98356 0 0 1 .81153.36914 1.37082 1.37082 0 0 1 .29492.88574v3.41993a1.238 1.238 0 0 1 -1.35254 1.35351z"/><path d="m515.75952 362.38184a16.04811 16.04811 0 0 1 4.74512-11.45411 16.22327 16.22327 0 0 1 3.27051-2.50976 16.49961 16.49961 0 0 1 3.84765-1.624 16.1628 16.1628 0 0 1 8.56836 0 16.22259 16.22259 0 0 1 3.84766 1.624 16.39351 16.39351 0 0 1 3.25781 2.50976 16.12688 16.12688 0 0 1 2.53223 19.61084 16.50112 16.50112 0 0 1 -2.53223 3.26026 16.03791 16.03791 0 0 1 -7.10547 4.146 16.1628 16.1628 0 0 1 -8.56836 0 16.458 16.458 0 0 1 -3.84765-1.624 15.96729 15.96729 0 0 1 -3.27051-2.522 16.50112 16.50112 0 0 1 -2.53223-3.26026 15.96 15.96 0 0 1 -2.21289-8.15673zm6.93848 0a10.114 10.114 0 0 0 .68945 3.72754 9.3992 9.3992 0 0 0 1.919 3.06347 9.14 9.14 0 0 0 2.916 2.0669 8.81027 8.81027 0 0 0 3.67871.76269 8.531 8.531 0 0 0 3.6045-.76269 8.93049 8.93049 0 0 0 2.86621-2.0669 9.47788 9.47788 0 0 0 1.88281-3.06347 10.57028 10.57028 0 0 0 0-7.44288 9.89881 9.89881 0 0 0 -1.88281-3.11279 9.14791 9.14791 0 0 0 -2.86621-2.14062 8.20807 8.20807 0 0 0 -3.6045-.79981 8.47457 8.47457 0 0 0 -3.67871.79981 9.35639 9.35639 0 0 0 -2.916 2.14062 9.81152 9.81152 0 0 0 -1.919 3.11279 10.14558 10.14558 0 0 0 -.68945 3.71534z"/><path d="m553.99683 347.42139a1.35391 1.35391 0 0 1 .56543-.4917.84319.84319 0 0 1 .59082-.20948q.39256-.01172.73828-.0122h2.48437a1.23051 1.23051 0 0 1 1.0586.46777 2.70276 2.70276 0 0 1 .46777 1.0332l.27051 2.6084a10.88654 10.88654 0 0 1 1.38965-1.64892 9.3001 9.3001 0 0 1 1.95605-1.45166 11.18558 11.18558 0 0 1 2.584-1.03321 12.52421 12.52421 0 0 1 3.27247-.394 12.194 12.194 0 0 1 5.167 1.0459 11.00071 11.00071 0 0 1 3.81445 2.8667 12.47141 12.47141 0 0 1 2.34961 4.28125 17.04524 17.04524 0 0 1 .79981 5.29v16.41211a1.86944 1.86944 0 0 1 -.41895 1.32861 1.57713 1.57713 0 0 1 -1.20508.44287h-3.74023a1.76447 1.76447 0 0 1 -1.31641-.36914 1.96276 1.96276 0 0 1 -.332-1.3042v-16.38721a7.51486 7.51486 0 0 0 -.44336-2.54638 6.95753 6.95753 0 0 0 -1.291-2.22705 6.25827 6.25827 0 0 0 -2.10449-1.57471 6.87868 6.87868 0 0 0 -5.25293-.13525 7.676 7.676 0 0 0 -2.22656 1.2915 7.09651 7.09651 0 0 0 -1.67383 2.03027 5.63781 5.63781 0 0 0 -.68847 2.69434v15.94434a8.82189 8.82189 0 0 1 -.04981.935 2.8321 2.8321 0 0 1 -.209.83643 1.42561 1.42561 0 0 1 -.45508.59033 1.23467 1.23467 0 0 1 -.7627.22168h-4.05957a1.62682 1.62682 0 0 1 -1.19336-.38135 1.47985 1.47985 0 0 1 -.38183-1.09521v-28.3208a1.25561 1.25561 0 0 1 .29584-.73823z"/><path d="m587.16382 337.314a1.2965 1.2965 0 0 1 1.45215-1.48144h4.13379a1.6099 1.6099 0 0 1 1.10742.37061 1.40768 1.40768 0 0 1 .418 1.11083v3.67969a1.72481 1.72481 0 0 1 -.39356 1.07422 1.32172 1.32172 0 0 1 -1.10742.50635h-4.13379q-1.47655 0-1.47656-1.58057zm0 10.895a1.58735 1.58735 0 0 1 .36914-1.07031 1.34844 1.34844 0 0 1 1.083-.43066h4.084a1.51406 1.51406 0 0 1 .55371.11084 1.55626 1.55626 0 0 1 .50488.31982 1.93033 1.93033 0 0 1 .36915.48 1.22258 1.22258 0 0 1 .14746.59033v28.27149q0 1.47655-1.55078 1.47656h-4.084a1.30511 1.30511 0 0 1 -1.47656-1.47656z"/><path d="m623.28491 369.76318a2.26217 2.26217 0 0 1 .70117-.332 2.3468 2.3468 0 0 1 .4795-.06152.93264.93264 0 0 1 .71386.44287l.58985.812 1.74707 2.48535a1.67879 1.67879 0 0 1 .19726.35645.91668.91668 0 0 1 .07422.33252 1.031 1.031 0 0 1 -.27148.70117 4.30906 4.30906 0 0 1 -.71289.62744 19.60347 19.60347 0 0 1 -4.51563 2.46045 14.688 14.688 0 0 1 -5.32715.93506 15.59544 15.59544 0 0 1 -4.24414-.57813 16.37053 16.37053 0 0 1 -9.64551-7.394 16.03 16.03 0 0 1 0-16.33789 16.30056 16.30056 0 0 1 9.64551-7.394 15.59544 15.59544 0 0 1 4.24414-.57813 15.79354 15.79354 0 0 1 5.167.83643 15.52668 15.52668 0 0 1 4.33105 2.26367l-.02441-.02441a7.30189 7.30189 0 0 0 .67675.60254.95228.95228 0 0 1 .332.7998c0 .09863-.00489.21338-.0127.34424a.70173.70173 0 0 1 -.13477.36914l-2.01757 3.07568a1.35716 1.35716 0 0 1 -1.083.73828 1.55338 1.55338 0 0 1 -.93555-.41845 10.5247 10.5247 0 0 0 -2.92773-1.72217 9.25473 9.25473 0 0 0 -3.44434-.66455 8.31126 8.31126 0 0 0 -3.60547.7998 9.77568 9.77568 0 0 0 -2.96484 2.16553 10.27736 10.27736 0 0 0 -2.01758 3.17383 10.136 10.136 0 0 0 2.00586 10.76513 9.516 9.516 0 0 0 2.96484 2.10352 8.59959 8.59959 0 0 0 3.61719.77539 8.351 8.351 0 0 0 3.61719-.72607 14.03762 14.03762 0 0 0 2.7803-1.73497z"/></g></svg>